<svg width="336" height="154" viewBox="0 0 336 154" fill="none" xmlns="http://www.w3.org/2000/svg">
<path d="M10.0489 2.92705C10.3483 2.00574 11.6517 2.00574 11.9511 2.92705L13.2451 6.90983C13.379 7.32185 13.763 7.60081 14.1962 7.60081H18.3839C19.3527 7.60081 19.7554 8.84043 18.9717 9.40983L15.5838 11.8713C15.2333 12.126 15.0866 12.5773 15.2205 12.9894L16.5146 16.9721C16.8139 17.8934 15.7595 18.6596 14.9757 18.0902L11.5878 15.6287C11.2373 15.374 10.7627 15.374 10.4122 15.6287L7.02426 18.0902C6.24054 18.6596 5.18607 17.8934 5.48542 16.9721L6.7795 12.9894C6.91338 12.5773 6.76672 12.126 6.41623 11.8713L3.02827 9.40983C2.24456 8.84043 2.64734 7.60081 3.61606 7.60081H7.8038C8.23703 7.60081 8.62099 7.32185 8.75486 6.90983L10.0489 2.92705Z" fill="#FFB21A"/>
<path d="M35.0489 2.92705C35.3483 2.00574 36.6517 2.00574 36.9511 2.92705L38.2451 6.90983C38.379 7.32185 38.763 7.60081 39.1962 7.60081H43.3839C44.3527 7.60081 44.7554 8.84043 43.9717 9.40983L40.5838 11.8713C40.2333 12.126 40.0866 12.5773 40.2205 12.9894L41.5146 16.9721C41.8139 17.8934 40.7595 18.6596 39.9757 18.0902L36.5878 15.6287C36.2373 15.374 35.7627 15.374 35.4122 15.6287L32.0243 18.0902C31.2405 18.6596 30.1861 17.8934 30.4854 16.9721L31.7795 12.9894C31.9134 12.5773 31.7667 12.126 31.4162 11.8713L28.0283 9.40983C27.2446 8.84043 27.6473 7.60081 28.6161 7.60081H32.8038C33.237 7.60081 33.621 7.32185 33.7549 6.90983L35.0489 2.92705Z" fill="#FFB21A"/>
<path d="M60.0489 2.92705C60.3483 2.00574 61.6517 2.00574 61.9511 2.92705L63.2451 6.90983C63.379 7.32185 63.763 7.60081 64.1962 7.60081H68.3839C69.3527 7.60081 69.7554 8.84043 68.9717 9.40983L65.5838 11.8713C65.2333 12.126 65.0866 12.5773 65.2205 12.9894L66.5146 16.9721C66.8139 17.8934 65.7595 18.6596 64.9757 18.0902L61.5878 15.6287C61.2373 15.374 60.7627 15.374 60.4122 15.6287L57.0243 18.0902C56.2405 18.6596 55.1861 17.8934 55.4854 16.9721L56.7795 12.9894C56.9134 12.5773 56.7667 12.126 56.4162 11.8713L53.0283 9.40983C52.2446 8.84043 52.6473 7.60081 53.6161 7.60081H57.8038C58.237 7.60081 58.621 7.32185 58.7549 6.90983L60.0489 2.92705Z" fill="#FFB21A"/>
<path d="M85.0489 2.92705C85.3483 2.00574 86.6517 2.00574 86.9511 2.92705L88.2451 6.90983C88.379 7.32185 88.763 7.60081 89.1962 7.60081H93.3839C94.3527 7.60081 94.7554 8.84043 93.9717 9.40983L90.5838 11.8713C90.2333 12.126 90.0866 12.5773 90.2205 12.9894L91.5146 16.9721C91.8139 17.8934 90.7595 18.6596 89.9757 18.0902L86.5878 15.6287C86.2373 15.374 85.7627 15.374 85.4122 15.6287L82.0243 18.0902C81.2405 18.6596 80.1861 17.8934 80.4854 16.9721L81.7795 12.9894C81.9134 12.5773 81.7667 12.126 81.4162 11.8713L78.0283 9.40983C77.2446 8.84043 77.6473 7.60081 78.6161 7.60081H82.8038C83.237 7.60081 83.621 7.32185 83.7549 6.90983L85.0489 2.92705Z" fill="#FFB21A"/>
<path d="M110.049 2.92705C110.348 2.00574 111.652 2.00574 111.951 2.92705L113.245 6.90983C113.379 7.32185 113.763 7.60081 114.196 7.60081H118.384C119.353 7.60081 119.755 8.84043 118.972 9.40983L115.584 11.8713C115.233 12.126 115.087 12.5773 115.22 12.9894L116.515 16.9721C116.814 17.8934 115.759 18.6596 114.976 18.0902L111.588 15.6287C111.237 15.374 110.763 15.374 110.412 15.6287L107.024 18.0902C106.241 18.6596 105.186 17.8934 105.485 16.9721L106.78 12.9894C106.913 12.5773 106.767 12.126 106.416 11.8713L103.028 9.40983C102.245 8.84043 102.647 7.60081 103.616 7.60081H107.804C108.237 7.60081 108.621 7.32185 108.755 6.90983L110.049 2.92705Z" fill="#FFB21A"/>
<rect x="2" y="28" width="334" height="126" rx="24" fill="#F5F5F5"/>
<path d="M23.7969 86L20.4062 77.1406H20.3516C20.4154 77.8424 20.4473 78.6764 20.4473 79.6426V86H19.374V76.0059H21.124L24.2891 84.25H24.3438L27.5361 76.0059H29.2725V86H28.1104V79.5605C28.1104 78.8223 28.1423 78.0202 28.2061 77.1543H28.1514L24.7334 86H23.7969ZM32.9844 86H31.8496V78.5078H32.9844V86ZM31.7539 76.4775C31.7539 76.2178 31.8177 76.0286 31.9453 75.9102C32.0729 75.7871 32.2324 75.7256 32.4238 75.7256C32.6061 75.7256 32.7633 75.7871 32.8955 75.9102C33.0277 76.0332 33.0938 76.2223 33.0938 76.4775C33.0938 76.7327 33.0277 76.9242 32.8955 77.0518C32.7633 77.1748 32.6061 77.2363 32.4238 77.2363C32.2324 77.2363 32.0729 77.1748 31.9453 77.0518C31.8177 76.9242 31.7539 76.7327 31.7539 76.4775ZM40.5176 86V81.1533C40.5176 80.5426 40.3786 80.0869 40.1006 79.7861C39.8226 79.4854 39.3874 79.335 38.7949 79.335C38.0111 79.335 37.4368 79.5469 37.0723 79.9707C36.7077 80.3945 36.5254 81.0941 36.5254 82.0693V86H35.3906V78.5078H36.3135L36.498 79.5332H36.5527C36.7852 79.1641 37.111 78.8792 37.5303 78.6787C37.9495 78.4736 38.4167 78.3711 38.9316 78.3711C39.834 78.3711 40.513 78.5898 40.9688 79.0273C41.4245 79.4603 41.6523 80.1553 41.6523 81.1123V86H40.5176ZM45.125 86H43.9902V78.5078H45.125V86ZM43.8945 76.4775C43.8945 76.2178 43.9583 76.0286 44.0859 75.9102C44.2135 75.7871 44.373 75.7256 44.5645 75.7256C44.7467 75.7256 44.904 75.7871 45.0361 75.9102C45.1683 76.0332 45.2344 76.2223 45.2344 76.4775C45.2344 76.7327 45.1683 76.9242 45.0361 77.0518C44.904 77.1748 44.7467 77.2363 44.5645 77.2363C44.373 77.2363 44.2135 77.1748 44.0859 77.0518C43.9583 76.9242 43.8945 76.7327 43.8945 76.4775ZM57.0811 86V81.126C57.0811 80.529 56.9535 80.0824 56.6982 79.7861C56.443 79.4854 56.0465 79.335 55.5088 79.335C54.8024 79.335 54.2806 79.5378 53.9434 79.9434C53.6061 80.349 53.4375 80.9733 53.4375 81.8164V86H52.3027V81.126C52.3027 80.529 52.1751 80.0824 51.9199 79.7861C51.6647 79.4854 51.266 79.335 50.7236 79.335C50.0127 79.335 49.4909 79.5492 49.1582 79.9775C48.8301 80.4014 48.666 81.0986 48.666 82.0693V86H47.5312V78.5078H48.4541L48.6387 79.5332H48.6934C48.9076 79.1686 49.2083 78.8838 49.5957 78.6787C49.9876 78.4736 50.4251 78.3711 50.9082 78.3711C52.0794 78.3711 52.8451 78.7949 53.2051 79.6426H53.2598C53.4831 79.2507 53.8066 78.9408 54.2305 78.7129C54.6543 78.485 55.1374 78.3711 55.6797 78.3711C56.5273 78.3711 57.1608 78.5898 57.5801 79.0273C58.0039 79.4603 58.2158 80.1553 58.2158 81.1123V86H57.0811ZM65.168 86L64.9424 84.9336H64.8877C64.514 85.403 64.1403 85.722 63.7666 85.8906C63.3975 86.0547 62.9349 86.1367 62.3789 86.1367C61.6361 86.1367 61.0527 85.9453 60.6289 85.5625C60.2096 85.1797 60 84.6351 60 83.9287C60 82.4157 61.21 81.6227 63.6299 81.5498L64.9014 81.5088V81.0439C64.9014 80.4561 64.7738 80.0231 64.5186 79.7451C64.2679 79.4626 63.8646 79.3213 63.3086 79.3213C62.6842 79.3213 61.9779 79.5127 61.1895 79.8955L60.8408 79.0273C61.21 78.8268 61.6133 78.6696 62.0508 78.5557C62.4928 78.4417 62.9349 78.3848 63.377 78.3848C64.2702 78.3848 64.931 78.583 65.3594 78.9795C65.7923 79.376 66.0088 80.0117 66.0088 80.8867V86H65.168ZM62.6045 85.2002C63.3109 85.2002 63.8646 85.0065 64.2656 84.6191C64.6712 84.2318 64.874 83.6895 64.874 82.9922V82.3154L63.7393 82.3633C62.8369 82.3952 62.1852 82.5365 61.7842 82.7871C61.3877 83.0332 61.1895 83.4183 61.1895 83.9424C61.1895 84.3525 61.3125 84.6647 61.5586 84.8789C61.8092 85.0931 62.1579 85.2002 62.6045 85.2002ZM73.6309 86L70.7871 78.5078H72.0039L73.6172 82.9512C73.9818 83.9902 74.196 84.6647 74.2598 84.9746H74.3145C74.3646 84.7331 74.5218 84.234 74.7861 83.4775C75.055 82.7165 75.6543 81.0599 76.584 78.5078H77.8008L74.957 86H73.6309ZM82.1689 86.1367C81.0615 86.1367 80.1865 85.7995 79.5439 85.125C78.9059 84.4505 78.5869 83.514 78.5869 82.3154C78.5869 81.1077 78.8831 80.1484 79.4756 79.4375C80.0726 78.7266 80.8724 78.3711 81.875 78.3711C82.8138 78.3711 83.5566 78.681 84.1035 79.3008C84.6504 79.916 84.9238 80.7295 84.9238 81.7412V82.459H79.7627C79.7855 83.3385 80.0065 84.0062 80.4258 84.4619C80.8496 84.9176 81.4443 85.1455 82.21 85.1455C83.0166 85.1455 83.8141 84.9769 84.6025 84.6396V85.6514C84.2015 85.8245 83.821 85.9476 83.4609 86.0205C83.1055 86.098 82.6748 86.1367 82.1689 86.1367ZM81.8613 79.3213C81.2598 79.3213 80.779 79.5173 80.4189 79.9092C80.0635 80.3011 79.8538 80.8434 79.79 81.5361H83.707C83.707 80.8206 83.5475 80.2738 83.2285 79.8955C82.9095 79.5127 82.4538 79.3213 81.8613 79.3213ZM91.9922 86V81.1533C91.9922 80.5426 91.8532 80.0869 91.5752 79.7861C91.2972 79.4854 90.862 79.335 90.2695 79.335C89.4857 79.335 88.9115 79.5469 88.5469 79.9707C88.1823 80.3945 88 81.0941 88 82.0693V86H86.8652V78.5078H87.7881L87.9727 79.5332H88.0273C88.2598 79.1641 88.5856 78.8792 89.0049 78.6787C89.4242 78.4736 89.8913 78.3711 90.4062 78.3711C91.3086 78.3711 91.9876 78.5898 92.4434 79.0273C92.8991 79.4603 93.127 80.1553 93.127 81.1123V86H91.9922ZM96.5996 86H95.4648V78.5078H96.5996V86ZM95.3691 76.4775C95.3691 76.2178 95.4329 76.0286 95.5605 75.9102C95.6882 75.7871 95.8477 75.7256 96.0391 75.7256C96.2214 75.7256 96.3786 75.7871 96.5107 75.9102C96.6429 76.0332 96.709 76.2223 96.709 76.4775C96.709 76.7327 96.6429 76.9242 96.5107 77.0518C96.3786 77.1748 96.2214 77.2363 96.0391 77.2363C95.8477 77.2363 95.6882 77.1748 95.5605 77.0518C95.4329 76.9242 95.3691 76.7327 95.3691 76.4775ZM103.613 86L103.388 84.9336H103.333C102.959 85.403 102.586 85.722 102.212 85.8906C101.843 86.0547 101.38 86.1367 100.824 86.1367C100.081 86.1367 99.498 85.9453 99.0742 85.5625C98.6549 85.1797 98.4453 84.6351 98.4453 83.9287C98.4453 82.4157 99.6553 81.6227 102.075 81.5498L103.347 81.5088V81.0439C103.347 80.4561 103.219 80.0231 102.964 79.7451C102.713 79.4626 102.31 79.3213 101.754 79.3213C101.13 79.3213 100.423 79.5127 99.6348 79.8955L99.2861 79.0273C99.6553 78.8268 100.059 78.6696 100.496 78.5557C100.938 78.4417 101.38 78.3848 101.822 78.3848C102.715 78.3848 103.376 78.583 103.805 78.9795C104.238 79.376 104.454 80.0117 104.454 80.8867V86H103.613ZM101.05 85.2002C101.756 85.2002 102.31 85.0065 102.711 84.6191C103.117 84.2318 103.319 83.6895 103.319 82.9922V82.3154L102.185 82.3633C101.282 82.3952 100.631 82.5365 100.229 82.7871C99.833 83.0332 99.6348 83.4183 99.6348 83.9424C99.6348 84.3525 99.7578 84.6647 100.004 84.8789C100.255 85.0931 100.603 85.2002 101.05 85.2002ZM116.349 86V81.126C116.349 80.529 116.221 80.0824 115.966 79.7861C115.711 79.4854 115.314 79.335 114.776 79.335C114.07 79.335 113.548 79.5378 113.211 79.9434C112.874 80.349 112.705 80.9733 112.705 81.8164V86H111.57V81.126C111.57 80.529 111.443 80.0824 111.188 79.7861C110.932 79.4854 110.534 79.335 109.991 79.335C109.28 79.335 108.758 79.5492 108.426 79.9775C108.098 80.4014 107.934 81.0986 107.934 82.0693V86H106.799V78.5078H107.722L107.906 79.5332H107.961C108.175 79.1686 108.476 78.8838 108.863 78.6787C109.255 78.4736 109.693 78.3711 110.176 78.3711C111.347 78.3711 112.113 78.7949 112.473 79.6426H112.527C112.751 79.2507 113.074 78.9408 113.498 78.7129C113.922 78.485 114.405 78.3711 114.947 78.3711C115.795 78.3711 116.428 78.5898 116.848 79.0273C117.271 79.4603 117.483 80.1553 117.483 81.1123V86H116.349ZM121.018 84.373L121.12 84.5303C121.002 84.986 120.831 85.5146 120.607 86.1162C120.384 86.7223 120.152 87.2852 119.91 87.8047H119.056C119.179 87.3307 119.313 86.7451 119.459 86.0479C119.609 85.3506 119.714 84.7923 119.773 84.373H121.018ZM129.727 85.1865C130.483 85.1865 131.035 84.9837 131.381 84.5781C131.727 84.1725 131.912 83.4889 131.935 82.5273V82.2744C131.935 81.2262 131.757 80.472 131.401 80.0117C131.046 79.5514 130.483 79.3213 129.713 79.3213C129.048 79.3213 128.537 79.5811 128.182 80.1006C127.831 80.6156 127.655 81.3447 127.655 82.2881C127.655 83.2314 127.828 83.9515 128.175 84.4482C128.526 84.9404 129.043 85.1865 129.727 85.1865ZM129.556 86.1367C128.59 86.1367 127.835 85.7972 127.293 85.1182C126.751 84.4391 126.479 83.4912 126.479 82.2744C126.479 81.0485 126.753 80.0915 127.3 79.4033C127.847 78.7152 128.608 78.3711 129.583 78.3711C130.608 78.3711 131.397 78.7585 131.948 79.5332H132.01L132.174 78.5078H133.069V89.3633H131.935V86.1572C131.935 85.7015 131.96 85.3141 132.01 84.9951H131.921C131.397 85.7562 130.608 86.1367 129.556 86.1367ZM136.549 78.5078V83.3682C136.549 83.9788 136.688 84.4346 136.966 84.7354C137.244 85.0361 137.679 85.1865 138.271 85.1865C139.055 85.1865 139.627 84.9723 139.987 84.5439C140.352 84.1156 140.534 83.416 140.534 82.4453V78.5078H141.669V86H140.732L140.568 84.9951H140.507C140.274 85.3643 139.951 85.6468 139.536 85.8428C139.126 86.0387 138.657 86.1367 138.128 86.1367C137.216 86.1367 136.533 85.9202 136.077 85.4873C135.626 85.0544 135.4 84.3617 135.4 83.4092V78.5078H136.549ZM145.217 86H144.082V78.5078H145.217V86ZM143.986 76.4775C143.986 76.2178 144.05 76.0286 144.178 75.9102C144.305 75.7871 144.465 75.7256 144.656 75.7256C144.839 75.7256 144.996 75.7871 145.128 75.9102C145.26 76.0332 145.326 76.2223 145.326 76.4775C145.326 76.7327 145.26 76.9242 145.128 77.0518C144.996 77.1748 144.839 77.2363 144.656 77.2363C144.465 77.2363 144.305 77.1748 144.178 77.0518C144.05 76.9242 143.986 76.7327 143.986 76.4775ZM152.456 83.9561C152.456 84.6533 152.196 85.1911 151.677 85.5693C151.157 85.9476 150.428 86.1367 149.489 86.1367C148.496 86.1367 147.721 85.9795 147.165 85.665V84.6123C147.525 84.7946 147.91 84.9382 148.32 85.043C148.735 85.1478 149.134 85.2002 149.517 85.2002C150.109 85.2002 150.565 85.1068 150.884 84.9199C151.203 84.7285 151.362 84.4391 151.362 84.0518C151.362 83.7601 151.235 83.5117 150.979 83.3066C150.729 83.097 150.237 82.8509 149.503 82.5684C148.806 82.3086 148.309 82.083 148.013 81.8916C147.721 81.6956 147.502 81.4746 147.356 81.2285C147.215 80.9824 147.145 80.6885 147.145 80.3467C147.145 79.736 147.393 79.2552 147.89 78.9043C148.386 78.5488 149.068 78.3711 149.934 78.3711C150.74 78.3711 151.529 78.5352 152.299 78.8633L151.896 79.7861C151.144 79.4762 150.462 79.3213 149.852 79.3213C149.314 79.3213 148.908 79.4056 148.635 79.5742C148.361 79.7428 148.225 79.9753 148.225 80.2715C148.225 80.472 148.275 80.6429 148.375 80.7842C148.48 80.9255 148.646 81.0599 148.874 81.1875C149.102 81.3151 149.539 81.4997 150.187 81.7412C151.075 82.0648 151.674 82.3906 151.984 82.7188C152.299 83.0469 152.456 83.4593 152.456 83.9561ZM163.072 86V81.1533C163.072 80.5426 162.933 80.0869 162.655 79.7861C162.377 79.4854 161.942 79.335 161.35 79.335C160.566 79.335 159.992 79.5469 159.627 79.9707C159.262 80.3945 159.08 81.0941 159.08 82.0693V86H157.945V78.5078H158.868L159.053 79.5332H159.107C159.34 79.1641 159.666 78.8792 160.085 78.6787C160.504 78.4736 160.971 78.3711 161.486 78.3711C162.389 78.3711 163.068 78.5898 163.523 79.0273C163.979 79.4603 164.207 80.1553 164.207 81.1123V86H163.072ZM173.012 82.2471C173.012 83.4684 172.704 84.4232 172.089 85.1113C171.474 85.7949 170.624 86.1367 169.539 86.1367C168.869 86.1367 168.274 85.9795 167.755 85.665C167.235 85.3506 166.834 84.8994 166.552 84.3115C166.269 83.7236 166.128 83.0355 166.128 82.2471C166.128 81.0257 166.433 80.0755 167.044 79.3965C167.655 78.7129 168.502 78.3711 169.587 78.3711C170.635 78.3711 171.467 78.7197 172.082 79.417C172.702 80.1143 173.012 81.0576 173.012 82.2471ZM167.304 82.2471C167.304 83.2041 167.495 83.9333 167.878 84.4346C168.261 84.9359 168.824 85.1865 169.566 85.1865C170.309 85.1865 170.872 84.9382 171.255 84.4414C171.642 83.9401 171.836 83.2087 171.836 82.2471C171.836 81.2946 171.642 80.5723 171.255 80.0801C170.872 79.5833 170.305 79.335 169.553 79.335C168.81 79.335 168.249 79.5788 167.871 80.0664C167.493 80.554 167.304 81.2809 167.304 82.2471ZM179.841 83.9561C179.841 84.6533 179.581 85.1911 179.062 85.5693C178.542 85.9476 177.813 86.1367 176.874 86.1367C175.881 86.1367 175.106 85.9795 174.55 85.665V84.6123C174.91 84.7946 175.295 84.9382 175.705 85.043C176.12 85.1478 176.519 85.2002 176.901 85.2002C177.494 85.2002 177.95 85.1068 178.269 84.9199C178.588 84.7285 178.747 84.4391 178.747 84.0518C178.747 83.7601 178.619 83.5117 178.364 83.3066C178.114 83.097 177.621 82.8509 176.888 82.5684C176.19 82.3086 175.694 82.083 175.397 81.8916C175.106 81.6956 174.887 81.4746 174.741 81.2285C174.6 80.9824 174.529 80.6885 174.529 80.3467C174.529 79.736 174.778 79.2552 175.274 78.9043C175.771 78.5488 176.452 78.3711 177.318 78.3711C178.125 78.3711 178.913 78.5352 179.684 78.8633L179.28 79.7861C178.528 79.4762 177.847 79.3213 177.236 79.3213C176.699 79.3213 176.293 79.4056 176.02 79.5742C175.746 79.7428 175.609 79.9753 175.609 80.2715C175.609 80.472 175.66 80.6429 175.76 80.7842C175.865 80.9255 176.031 81.0599 176.259 81.1875C176.487 81.3151 176.924 81.4997 177.571 81.7412C178.46 82.0648 179.059 82.3906 179.369 82.7188C179.684 83.0469 179.841 83.4593 179.841 83.9561ZM184.113 85.2002C184.314 85.2002 184.507 85.1865 184.694 85.1592C184.881 85.1273 185.029 85.0954 185.139 85.0635V85.9316C185.016 85.9909 184.833 86.0387 184.592 86.0752C184.355 86.1162 184.141 86.1367 183.949 86.1367C182.5 86.1367 181.775 85.3734 181.775 83.8467V79.3896H180.702V78.8428L181.775 78.3711L182.254 76.7715H182.91V78.5078H185.084V79.3896H182.91V83.7988C182.91 84.25 183.017 84.5964 183.231 84.8379C183.446 85.0794 183.74 85.2002 184.113 85.2002ZM190.061 78.3711C190.393 78.3711 190.692 78.3984 190.956 78.4531L190.799 79.5059C190.489 79.4375 190.215 79.4033 189.979 79.4033C189.372 79.4033 188.853 79.6494 188.42 80.1416C187.992 80.6338 187.777 81.2467 187.777 81.9805V86H186.643V78.5078H187.579L187.709 79.8955H187.764C188.042 79.4079 188.377 79.0319 188.769 78.7676C189.16 78.5033 189.591 78.3711 190.061 78.3711ZM193.424 78.5078V83.3682C193.424 83.9788 193.563 84.4346 193.841 84.7354C194.119 85.0361 194.554 85.1865 195.146 85.1865C195.93 85.1865 196.502 84.9723 196.862 84.5439C197.227 84.1156 197.409 83.416 197.409 82.4453V78.5078H198.544V86H197.607L197.443 84.9951H197.382C197.149 85.3643 196.826 85.6468 196.411 85.8428C196.001 86.0387 195.532 86.1367 195.003 86.1367C194.091 86.1367 193.408 85.9202 192.952 85.4873C192.501 85.0544 192.275 84.3617 192.275 83.4092V78.5078H193.424ZM210.507 86V81.126C210.507 80.529 210.379 80.0824 210.124 79.7861C209.869 79.4854 209.472 79.335 208.935 79.335C208.228 79.335 207.706 79.5378 207.369 79.9434C207.032 80.349 206.863 80.9733 206.863 81.8164V86H205.729V81.126C205.729 80.529 205.601 80.0824 205.346 79.7861C205.09 79.4854 204.692 79.335 204.149 79.335C203.438 79.335 202.917 79.5492 202.584 79.9775C202.256 80.4014 202.092 81.0986 202.092 82.0693V86H200.957V78.5078H201.88L202.064 79.5332H202.119C202.333 79.1686 202.634 78.8838 203.021 78.6787C203.413 78.4736 203.851 78.3711 204.334 78.3711C205.505 78.3711 206.271 78.7949 206.631 79.6426H206.686C206.909 79.2507 207.232 78.9408 207.656 78.7129C208.08 78.485 208.563 78.3711 209.105 78.3711C209.953 78.3711 210.587 78.5898 211.006 79.0273C211.43 79.4603 211.642 80.1553 211.642 81.1123V86H210.507ZM22.3682 105.137C21.2607 105.137 20.3857 104.799 19.7432 104.125C19.1051 103.451 18.7861 102.514 18.7861 101.315C18.7861 100.108 19.0824 99.1484 19.6748 98.4375C20.2718 97.7266 21.0716 97.3711 22.0742 97.3711C23.013 97.3711 23.7559 97.681 24.3027 98.3008C24.8496 98.916 25.123 99.7295 25.123 100.741V101.459H19.9619C19.9847 102.339 20.2057 103.006 20.625 103.462C21.0488 103.918 21.6436 104.146 22.4092 104.146C23.2158 104.146 24.0133 103.977 24.8018 103.64V104.651C24.4007 104.825 24.0202 104.948 23.6602 105.021C23.3047 105.098 22.874 105.137 22.3682 105.137ZM22.0605 98.3213C21.459 98.3213 20.9782 98.5173 20.6182 98.9092C20.2627 99.3011 20.0531 99.8434 19.9893 100.536H23.9062C23.9062 99.8206 23.7467 99.2738 23.4277 98.8955C23.1087 98.5127 22.653 98.3213 22.0605 98.3213ZM28.8691 101.165L26.2646 97.5078H27.5566L29.5322 100.379L31.501 97.5078H32.7793L30.1748 101.165L32.916 105H31.6309L29.5322 101.965L27.4131 105H26.1279L28.8691 101.165ZM37.5713 105.137C36.4639 105.137 35.5889 104.799 34.9463 104.125C34.3083 103.451 33.9893 102.514 33.9893 101.315C33.9893 100.108 34.2855 99.1484 34.8779 98.4375C35.4749 97.7266 36.2747 97.3711 37.2773 97.3711C38.2161 97.3711 38.959 97.681 39.5059 98.3008C40.0527 98.916 40.3262 99.7295 40.3262 100.741V101.459H35.165C35.1878 102.339 35.4089 103.006 35.8281 103.462C36.252 103.918 36.8467 104.146 37.6123 104.146C38.4189 104.146 39.2165 103.977 40.0049 103.64V104.651C39.6038 104.825 39.2233 104.948 38.8633 105.021C38.5078 105.098 38.0771 105.137 37.5713 105.137ZM37.2637 98.3213C36.6621 98.3213 36.1813 98.5173 35.8213 98.9092C35.4658 99.3011 35.2562 99.8434 35.1924 100.536H39.1094C39.1094 99.8206 38.9499 99.2738 38.6309 98.8955C38.3118 98.5127 37.8561 98.3213 37.2637 98.3213ZM45.6855 97.3711C46.0182 97.3711 46.3167 97.3984 46.5811 97.4531L46.4238 98.5059C46.1139 98.4375 45.8405 98.4033 45.6035 98.4033C44.9974 98.4033 44.4779 98.6494 44.0449 99.1416C43.6165 99.6338 43.4023 100.247 43.4023 100.98V105H42.2676V97.5078H43.2041L43.334 98.8955H43.3887C43.6667 98.4079 44.0016 98.0319 44.3936 97.7676C44.7855 97.5033 45.2161 97.3711 45.6855 97.3711ZM50.9766 105.137C49.8919 105.137 49.0511 104.804 48.4541 104.139C47.8617 103.469 47.5654 102.523 47.5654 101.302C47.5654 100.049 47.8662 99.0801 48.4678 98.3965C49.0739 97.7129 49.9352 97.3711 51.0518 97.3711C51.4118 97.3711 51.7718 97.4098 52.1318 97.4873C52.4919 97.5648 52.7744 97.6559 52.9795 97.7607L52.6309 98.7246C52.3802 98.6243 52.1068 98.5423 51.8105 98.4785C51.5143 98.4102 51.2523 98.376 51.0244 98.376C49.5023 98.376 48.7412 99.3467 48.7412 101.288C48.7412 102.209 48.9258 102.915 49.2949 103.407C49.6686 103.899 50.2201 104.146 50.9492 104.146C51.5736 104.146 52.2139 104.011 52.8701 103.742V104.747C52.3688 105.007 51.7376 105.137 50.9766 105.137ZM55.7891 105H54.6543V97.5078H55.7891V105ZM54.5586 95.4775C54.5586 95.2178 54.6224 95.0286 54.75 94.9102C54.8776 94.7871 55.0371 94.7256 55.2285 94.7256C55.4108 94.7256 55.568 94.7871 55.7002 94.9102C55.8324 95.0332 55.8984 95.2223 55.8984 95.4775C55.8984 95.7327 55.8324 95.9242 55.7002 96.0518C55.568 96.1748 55.4108 96.2363 55.2285 96.2363C55.0371 96.2363 54.8776 96.1748 54.75 96.0518C54.6224 95.9242 54.5586 95.7327 54.5586 95.4775ZM60.6152 104.2C60.8158 104.2 61.0094 104.187 61.1963 104.159C61.3831 104.127 61.5312 104.095 61.6406 104.063V104.932C61.5176 104.991 61.3353 105.039 61.0938 105.075C60.8568 105.116 60.6426 105.137 60.4512 105.137C59.002 105.137 58.2773 104.373 58.2773 102.847V98.3896H57.2041V97.8428L58.2773 97.3711L58.7559 95.7715H59.4121V97.5078H61.5859V98.3896H59.4121V102.799C59.4121 103.25 59.5192 103.596 59.7334 103.838C59.9476 104.079 60.2415 104.2 60.6152 104.2ZM67.752 105L67.5264 103.934H67.4717C67.098 104.403 66.7243 104.722 66.3506 104.891C65.9814 105.055 65.5189 105.137 64.9629 105.137C64.2201 105.137 63.6367 104.945 63.2129 104.562C62.7936 104.18 62.584 103.635 62.584 102.929C62.584 101.416 63.7939 100.623 66.2139 100.55L67.4854 100.509V100.044C67.4854 99.4561 67.3577 99.0231 67.1025 98.7451C66.8519 98.4626 66.4486 98.3213 65.8926 98.3213C65.2682 98.3213 64.5618 98.5127 63.7734 98.8955L63.4248 98.0273C63.7939 97.8268 64.1973 97.6696 64.6348 97.5557C65.0768 97.4417 65.5189 97.3848 65.9609 97.3848C66.8542 97.3848 67.515 97.583 67.9434 97.9795C68.3763 98.376 68.5928 99.0117 68.5928 99.8867V105H67.752ZM65.1885 104.2C65.8949 104.2 66.4486 104.007 66.8496 103.619C67.2552 103.232 67.458 102.689 67.458 101.992V101.315L66.3232 101.363C65.4209 101.395 64.7692 101.536 64.3682 101.787C63.9717 102.033 63.7734 102.418 63.7734 102.942C63.7734 103.353 63.8965 103.665 64.1426 103.879C64.3932 104.093 64.7419 104.2 65.1885 104.2ZM73.3574 104.2C73.5579 104.2 73.7516 104.187 73.9385 104.159C74.1253 104.127 74.2734 104.095 74.3828 104.063V104.932C74.2598 104.991 74.0775 105.039 73.8359 105.075C73.599 105.116 73.3848 105.137 73.1934 105.137C71.7441 105.137 71.0195 104.373 71.0195 102.847V98.3896H69.9463V97.8428L71.0195 97.3711L71.498 95.7715H72.1543V97.5078H74.3281V98.3896H72.1543V102.799C72.1543 103.25 72.2614 103.596 72.4756 103.838C72.6898 104.079 72.9837 104.2 73.3574 104.2ZM77.0215 105H75.8867V97.5078H77.0215V105ZM75.791 95.4775C75.791 95.2178 75.8548 95.0286 75.9824 94.9102C76.11 94.7871 76.2695 94.7256 76.4609 94.7256C76.6432 94.7256 76.8005 94.7871 76.9326 94.9102C77.0648 95.0332 77.1309 95.2223 77.1309 95.4775C77.1309 95.7327 77.0648 95.9242 76.9326 96.0518C76.8005 96.1748 76.6432 96.2363 76.4609 96.2363C76.2695 96.2363 76.11 96.1748 75.9824 96.0518C75.8548 95.9242 75.791 95.7327 75.791 95.4775ZM85.8945 101.247C85.8945 102.468 85.5869 103.423 84.9717 104.111C84.3564 104.795 83.5065 105.137 82.4219 105.137C81.752 105.137 81.1572 104.979 80.6377 104.665C80.1182 104.351 79.7171 103.899 79.4346 103.312C79.152 102.724 79.0107 102.035 79.0107 101.247C79.0107 100.026 79.3161 99.0755 79.9268 98.3965C80.5374 97.7129 81.3851 97.3711 82.4697 97.3711C83.5179 97.3711 84.3496 97.7197 84.9648 98.417C85.5846 99.1143 85.8945 100.058 85.8945 101.247ZM80.1865 101.247C80.1865 102.204 80.3779 102.933 80.7607 103.435C81.1436 103.936 81.7064 104.187 82.4492 104.187C83.1921 104.187 83.7549 103.938 84.1377 103.441C84.5251 102.94 84.7188 102.209 84.7188 101.247C84.7188 100.295 84.5251 99.5723 84.1377 99.0801C83.7549 98.5833 83.1875 98.335 82.4355 98.335C81.6927 98.335 81.1322 98.5788 80.7539 99.0664C80.3757 99.554 80.1865 100.281 80.1865 101.247ZM93.0176 105V100.153C93.0176 99.5426 92.8786 99.0869 92.6006 98.7861C92.3226 98.4854 91.8874 98.335 91.2949 98.335C90.5111 98.335 89.9368 98.5469 89.5723 98.9707C89.2077 99.3945 89.0254 100.094 89.0254 101.069V105H87.8906V97.5078H88.8135L88.998 98.5332H89.0527C89.2852 98.1641 89.611 97.8792 90.0303 97.6787C90.4495 97.4736 90.9167 97.3711 91.4316 97.3711C92.334 97.3711 93.013 97.5898 93.4688 98.0273C93.9245 98.4603 94.1523 99.1553 94.1523 100.112V105H93.0176ZM99.6553 105.137C98.5479 105.137 97.6729 104.799 97.0303 104.125C96.3923 103.451 96.0732 102.514 96.0732 101.315C96.0732 100.108 96.3695 99.1484 96.9619 98.4375C97.5589 97.7266 98.3587 97.3711 99.3613 97.3711C100.3 97.3711 101.043 97.681 101.59 98.3008C102.137 98.916 102.41 99.7295 102.41 100.741V101.459H97.249C97.2718 102.339 97.4928 103.006 97.9121 103.462C98.3359 103.918 98.9307 104.146 99.6963 104.146C100.503 104.146 101.3 103.977 102.089 103.64V104.651C101.688 104.825 101.307 104.948 100.947 105.021C100.592 105.098 100.161 105.137 99.6553 105.137ZM99.3477 98.3213C98.7461 98.3213 98.2653 98.5173 97.9053 98.9092C97.5498 99.3011 97.3402 99.8434 97.2764 100.536H101.193C101.193 99.8206 101.034 99.2738 100.715 98.8955C100.396 98.5127 99.9401 98.3213 99.3477 98.3213ZM113.901 105V100.126C113.901 99.529 113.774 99.0824 113.519 98.7861C113.263 98.4854 112.867 98.335 112.329 98.335C111.623 98.335 111.101 98.5378 110.764 98.9434C110.426 99.349 110.258 99.9733 110.258 100.816V105H109.123V100.126C109.123 99.529 108.995 99.0824 108.74 98.7861C108.485 98.4854 108.086 98.335 107.544 98.335C106.833 98.335 106.311 98.5492 105.979 98.9775C105.65 99.4014 105.486 100.099 105.486 101.069V105H104.352V97.5078H105.274L105.459 98.5332H105.514C105.728 98.1686 106.029 97.8838 106.416 97.6787C106.808 97.4736 107.245 97.3711 107.729 97.3711C108.9 97.3711 109.665 97.7949 110.025 98.6426H110.08C110.303 98.2507 110.627 97.9408 111.051 97.7129C111.475 97.485 111.958 97.3711 112.5 97.3711C113.348 97.3711 113.981 97.5898 114.4 98.0273C114.824 98.4603 115.036 99.1553 115.036 100.112V105H113.901ZM122.084 97.5078V102.368C122.084 102.979 122.223 103.435 122.501 103.735C122.779 104.036 123.214 104.187 123.807 104.187C124.59 104.187 125.162 103.972 125.522 103.544C125.887 103.116 126.069 102.416 126.069 101.445V97.5078H127.204V105H126.268L126.104 103.995H126.042C125.81 104.364 125.486 104.647 125.071 104.843C124.661 105.039 124.192 105.137 123.663 105.137C122.752 105.137 122.068 104.92 121.612 104.487C121.161 104.054 120.936 103.362 120.936 102.409V97.5078H122.084ZM130.752 105H129.617V94.3633H130.752V105ZM134.293 105H133.158V94.3633H134.293V105ZM141.307 105L141.081 103.934H141.026C140.653 104.403 140.279 104.722 139.905 104.891C139.536 105.055 139.074 105.137 138.518 105.137C137.775 105.137 137.191 104.945 136.768 104.562C136.348 104.18 136.139 103.635 136.139 102.929C136.139 101.416 137.349 100.623 139.769 100.55L141.04 100.509V100.044C141.04 99.4561 140.912 99.0231 140.657 98.7451C140.407 98.4626 140.003 98.3213 139.447 98.3213C138.823 98.3213 138.117 98.5127 137.328 98.8955L136.979 98.0273C137.349 97.8268 137.752 97.6696 138.189 97.5557C138.632 97.4417 139.074 97.3848 139.516 97.3848C140.409 97.3848 141.07 97.583 141.498 97.9795C141.931 98.376 142.147 99.0117 142.147 99.8867V105H141.307ZM138.743 104.2C139.45 104.2 140.003 104.007 140.404 103.619C140.81 103.232 141.013 102.689 141.013 101.992V101.315L139.878 101.363C138.976 101.395 138.324 101.536 137.923 101.787C137.526 102.033 137.328 102.418 137.328 102.942C137.328 103.353 137.451 103.665 137.697 103.879C137.948 104.093 138.297 104.2 138.743 104.2ZM154.042 105V100.126C154.042 99.529 153.914 99.0824 153.659 98.7861C153.404 98.4854 153.007 98.335 152.47 98.335C151.763 98.335 151.242 98.5378 150.904 98.9434C150.567 99.349 150.398 99.9733 150.398 100.816V105H149.264V100.126C149.264 99.529 149.136 99.0824 148.881 98.7861C148.626 98.4854 148.227 98.335 147.685 98.335C146.974 98.335 146.452 98.5492 146.119 98.9775C145.791 99.4014 145.627 100.099 145.627 101.069V105H144.492V97.5078H145.415L145.6 98.5332H145.654C145.868 98.1686 146.169 97.8838 146.557 97.6787C146.949 97.4736 147.386 97.3711 147.869 97.3711C149.04 97.3711 149.806 97.7949 150.166 98.6426H150.221C150.444 98.2507 150.768 97.9408 151.191 97.7129C151.615 97.485 152.098 97.3711 152.641 97.3711C153.488 97.3711 154.122 97.5898 154.541 98.0273C154.965 98.4603 155.177 99.1553 155.177 100.112V105H154.042ZM164.152 105.137C163.068 105.137 162.227 104.804 161.63 104.139C161.037 103.469 160.741 102.523 160.741 101.302C160.741 100.049 161.042 99.0801 161.644 98.3965C162.25 97.7129 163.111 97.3711 164.228 97.3711C164.588 97.3711 164.948 97.4098 165.308 97.4873C165.668 97.5648 165.95 97.6559 166.155 97.7607L165.807 98.7246C165.556 98.6243 165.283 98.5423 164.986 98.4785C164.69 98.4102 164.428 98.376 164.2 98.376C162.678 98.376 161.917 99.3467 161.917 101.288C161.917 102.209 162.102 102.915 162.471 103.407C162.844 103.899 163.396 104.146 164.125 104.146C164.749 104.146 165.39 104.011 166.046 103.742V104.747C165.545 105.007 164.913 105.137 164.152 105.137ZM174.297 101.247C174.297 102.468 173.989 103.423 173.374 104.111C172.759 104.795 171.909 105.137 170.824 105.137C170.154 105.137 169.56 104.979 169.04 104.665C168.521 104.351 168.119 103.899 167.837 103.312C167.554 102.724 167.413 102.035 167.413 101.247C167.413 100.026 167.718 99.0755 168.329 98.3965C168.94 97.7129 169.787 97.3711 170.872 97.3711C171.92 97.3711 172.752 97.7197 173.367 98.417C173.987 99.1143 174.297 100.058 174.297 101.247ZM168.589 101.247C168.589 102.204 168.78 102.933 169.163 103.435C169.546 103.936 170.109 104.187 170.852 104.187C171.594 104.187 172.157 103.938 172.54 103.441C172.927 102.94 173.121 102.209 173.121 101.247C173.121 100.295 172.927 99.5723 172.54 99.0801C172.157 98.5833 171.59 98.335 170.838 98.335C170.095 98.335 169.535 98.5788 169.156 99.0664C168.778 99.554 168.589 100.281 168.589 101.247ZM179.711 97.3711C180.044 97.3711 180.342 97.3984 180.606 97.4531L180.449 98.5059C180.139 98.4375 179.866 98.4033 179.629 98.4033C179.023 98.4033 178.503 98.6494 178.07 99.1416C177.642 99.6338 177.428 100.247 177.428 100.98V105H176.293V97.5078H177.229L177.359 98.8955H177.414C177.692 98.4079 178.027 98.0319 178.419 97.7676C178.811 97.5033 179.242 97.3711 179.711 97.3711ZM185.494 105.137C185.007 105.137 184.56 105.048 184.154 104.87C183.753 104.688 183.416 104.41 183.143 104.036H183.061C183.115 104.474 183.143 104.888 183.143 105.28V108.363H182.008V97.5078H182.931L183.088 98.5332H183.143C183.434 98.123 183.774 97.8268 184.161 97.6445C184.549 97.4622 184.993 97.3711 185.494 97.3711C186.488 97.3711 187.253 97.7106 187.791 98.3896C188.333 99.0687 188.604 100.021 188.604 101.247C188.604 102.478 188.329 103.435 187.777 104.118C187.23 104.797 186.469 105.137 185.494 105.137ZM185.33 98.335C184.564 98.335 184.011 98.5469 183.669 98.9707C183.327 99.3945 183.152 100.069 183.143 100.994V101.247C183.143 102.3 183.318 103.054 183.669 103.51C184.02 103.961 184.583 104.187 185.357 104.187C186.005 104.187 186.51 103.924 186.875 103.4C187.244 102.876 187.429 102.154 187.429 101.233C187.429 100.299 187.244 99.5837 186.875 99.0869C186.51 98.5856 185.995 98.335 185.33 98.335ZM197.061 101.247C197.061 102.468 196.753 103.423 196.138 104.111C195.522 104.795 194.673 105.137 193.588 105.137C192.918 105.137 192.323 104.979 191.804 104.665C191.284 104.351 190.883 103.899 190.601 103.312C190.318 102.724 190.177 102.035 190.177 101.247C190.177 100.026 190.482 99.0755 191.093 98.3965C191.703 97.7129 192.551 97.3711 193.636 97.3711C194.684 97.3711 195.516 97.7197 196.131 98.417C196.751 99.1143 197.061 100.058 197.061 101.247ZM191.353 101.247C191.353 102.204 191.544 102.933 191.927 103.435C192.31 103.936 192.872 104.187 193.615 104.187C194.358 104.187 194.921 103.938 195.304 103.441C195.691 102.94 195.885 102.209 195.885 101.247C195.885 100.295 195.691 99.5723 195.304 99.0801C194.921 98.5833 194.354 98.335 193.602 98.335C192.859 98.335 192.298 98.5788 191.92 99.0664C191.542 99.554 191.353 100.281 191.353 101.247ZM202.475 97.3711C202.807 97.3711 203.106 97.3984 203.37 97.4531L203.213 98.5059C202.903 98.4375 202.63 98.4033 202.393 98.4033C201.786 98.4033 201.267 98.6494 200.834 99.1416C200.406 99.6338 200.191 100.247 200.191 100.98V105H199.057V97.5078H199.993L200.123 98.8955H200.178C200.456 98.4079 200.791 98.0319 201.183 97.7676C201.575 97.5033 202.005 97.3711 202.475 97.3711ZM205.906 105H204.771V97.5078H205.906V105ZM204.676 95.4775C204.676 95.2178 204.74 95.0286 204.867 94.9102C204.995 94.7871 205.154 94.7256 205.346 94.7256C205.528 94.7256 205.685 94.7871 205.817 94.9102C205.95 95.0332 206.016 95.2223 206.016 95.4775C206.016 95.7327 205.95 95.9242 205.817 96.0518C205.685 96.1748 205.528 96.2363 205.346 96.2363C205.154 96.2363 204.995 96.1748 204.867 96.0518C204.74 95.9242 204.676 95.7327 204.676 95.4775ZM213.146 102.956C213.146 103.653 212.886 104.191 212.366 104.569C211.847 104.948 211.118 105.137 210.179 105.137C209.185 105.137 208.41 104.979 207.854 104.665V103.612C208.215 103.795 208.6 103.938 209.01 104.043C209.424 104.148 209.823 104.2 210.206 104.2C210.799 104.2 211.254 104.107 211.573 103.92C211.892 103.729 212.052 103.439 212.052 103.052C212.052 102.76 211.924 102.512 211.669 102.307C211.418 102.097 210.926 101.851 210.192 101.568C209.495 101.309 208.998 101.083 208.702 100.892C208.41 100.696 208.192 100.475 208.046 100.229C207.905 99.9824 207.834 99.6885 207.834 99.3467C207.834 98.736 208.082 98.2552 208.579 97.9043C209.076 97.5488 209.757 97.3711 210.623 97.3711C211.43 97.3711 212.218 97.5352 212.988 97.8633L212.585 98.7861C211.833 98.4762 211.152 98.3213 210.541 98.3213C210.003 98.3213 209.598 98.4056 209.324 98.5742C209.051 98.7428 208.914 98.9753 208.914 99.2715C208.914 99.472 208.964 99.6429 209.064 99.7842C209.169 99.9255 209.336 100.06 209.563 100.188C209.791 100.315 210.229 100.5 210.876 100.741C211.765 101.065 212.364 101.391 212.674 101.719C212.988 102.047 213.146 102.459 213.146 102.956ZM223.468 102.956C223.468 103.653 223.208 104.191 222.688 104.569C222.169 104.948 221.44 105.137 220.501 105.137C219.507 105.137 218.733 104.979 218.177 104.665V103.612C218.537 103.795 218.922 103.938 219.332 104.043C219.747 104.148 220.146 104.2 220.528 104.2C221.121 104.2 221.576 104.107 221.896 103.92C222.215 103.729 222.374 103.439 222.374 103.052C222.374 102.76 222.246 102.512 221.991 102.307C221.741 102.097 221.248 101.851 220.515 101.568C219.817 101.309 219.321 101.083 219.024 100.892C218.733 100.696 218.514 100.475 218.368 100.229C218.227 99.9824 218.156 99.6885 218.156 99.3467C218.156 98.736 218.405 98.2552 218.901 97.9043C219.398 97.5488 220.079 97.3711 220.945 97.3711C221.752 97.3711 222.54 97.5352 223.311 97.8633L222.907 98.7861C222.155 98.4762 221.474 98.3213 220.863 98.3213C220.326 98.3213 219.92 98.4056 219.646 98.5742C219.373 98.7428 219.236 98.9753 219.236 99.2715C219.236 99.472 219.286 99.6429 219.387 99.7842C219.492 99.9255 219.658 100.06 219.886 100.188C220.114 100.315 220.551 100.5 221.198 100.741C222.087 101.065 222.686 101.391 222.996 101.719C223.311 102.047 223.468 102.459 223.468 102.956ZM226.387 97.5078V102.368C226.387 102.979 226.526 103.435 226.804 103.735C227.082 104.036 227.517 104.187 228.109 104.187C228.893 104.187 229.465 103.972 229.825 103.544C230.19 103.116 230.372 102.416 230.372 101.445V97.5078H231.507V105H230.57L230.406 103.995H230.345C230.112 104.364 229.789 104.647 229.374 104.843C228.964 105.039 228.494 105.137 227.966 105.137C227.054 105.137 226.371 104.92 225.915 104.487C225.464 104.054 225.238 103.362 225.238 102.409V97.5078H226.387ZM238.753 102.956C238.753 103.653 238.493 104.191 237.974 104.569C237.454 104.948 236.725 105.137 235.786 105.137C234.793 105.137 234.018 104.979 233.462 104.665V103.612C233.822 103.795 234.207 103.938 234.617 104.043C235.032 104.148 235.431 104.2 235.813 104.2C236.406 104.2 236.862 104.107 237.181 103.92C237.5 103.729 237.659 103.439 237.659 103.052C237.659 102.76 237.532 102.512 237.276 102.307C237.026 102.097 236.534 101.851 235.8 101.568C235.103 101.309 234.606 101.083 234.31 100.892C234.018 100.696 233.799 100.475 233.653 100.229C233.512 99.9824 233.441 99.6885 233.441 99.3467C233.441 98.736 233.69 98.2552 234.187 97.9043C234.683 97.5488 235.365 97.3711 236.23 97.3711C237.037 97.3711 237.826 97.5352 238.596 97.8633L238.192 98.7861C237.44 98.4762 236.759 98.3213 236.148 98.3213C235.611 98.3213 235.205 98.4056 234.932 98.5742C234.658 98.7428 234.521 98.9753 234.521 99.2715C234.521 99.472 234.572 99.6429 234.672 99.7842C234.777 99.9255 234.943 100.06 235.171 100.188C235.399 100.315 235.836 100.5 236.483 100.741C237.372 101.065 237.971 101.391 238.281 101.719C238.596 102.047 238.753 102.459 238.753 102.956ZM243.6 105.137C242.515 105.137 241.674 104.804 241.077 104.139C240.485 103.469 240.188 102.523 240.188 101.302C240.188 100.049 240.489 99.0801 241.091 98.3965C241.697 97.7129 242.558 97.3711 243.675 97.3711C244.035 97.3711 244.395 97.4098 244.755 97.4873C245.115 97.5648 245.397 97.6559 245.603 97.7607L245.254 98.7246C245.003 98.6243 244.73 98.5423 244.434 98.4785C244.137 98.4102 243.875 98.376 243.647 98.376C242.125 98.376 241.364 99.3467 241.364 101.288C241.364 102.209 241.549 102.915 241.918 103.407C242.292 103.899 242.843 104.146 243.572 104.146C244.197 104.146 244.837 104.011 245.493 103.742V104.747C244.992 105.007 244.361 105.137 243.6 105.137ZM248.412 105H247.277V97.5078H248.412V105ZM247.182 95.4775C247.182 95.2178 247.245 95.0286 247.373 94.9102C247.501 94.7871 247.66 94.7256 247.852 94.7256C248.034 94.7256 248.191 94.7871 248.323 94.9102C248.455 95.0332 248.521 95.2223 248.521 95.4775C248.521 95.7327 248.455 95.9242 248.323 96.0518C248.191 96.1748 248.034 96.2363 247.852 96.2363C247.66 96.2363 247.501 96.1748 247.373 96.0518C247.245 95.9242 247.182 95.7327 247.182 95.4775ZM254.305 105.137C253.817 105.137 253.37 105.048 252.965 104.87C252.564 104.688 252.227 104.41 251.953 104.036H251.871C251.926 104.474 251.953 104.888 251.953 105.28V108.363H250.818V97.5078H251.741L251.898 98.5332H251.953C252.245 98.123 252.584 97.8268 252.972 97.6445C253.359 97.4622 253.803 97.3711 254.305 97.3711C255.298 97.3711 256.064 97.7106 256.602 98.3896C257.144 99.0687 257.415 100.021 257.415 101.247C257.415 102.478 257.139 103.435 256.588 104.118C256.041 104.797 255.28 105.137 254.305 105.137ZM254.141 98.335C253.375 98.335 252.821 98.5469 252.479 98.9707C252.138 99.3945 251.962 100.069 251.953 100.994V101.247C251.953 102.3 252.129 103.054 252.479 103.51C252.83 103.961 253.393 104.187 254.168 104.187C254.815 104.187 255.321 103.924 255.686 103.4C256.055 102.876 256.239 102.154 256.239 101.233C256.239 100.299 256.055 99.5837 255.686 99.0869C255.321 98.5856 254.806 98.335 254.141 98.335ZM260.539 105H259.404V97.5078H260.539V105ZM259.309 95.4775C259.309 95.2178 259.372 95.0286 259.5 94.9102C259.628 94.7871 259.787 94.7256 259.979 94.7256C260.161 94.7256 260.318 94.7871 260.45 94.9102C260.582 95.0332 260.648 95.2223 260.648 95.4775C260.648 95.7327 260.582 95.9242 260.45 96.0518C260.318 96.1748 260.161 96.2363 259.979 96.2363C259.787 96.2363 259.628 96.1748 259.5 96.0518C259.372 95.9242 259.309 95.7327 259.309 95.4775ZM265.365 104.2C265.566 104.2 265.759 104.187 265.946 104.159C266.133 104.127 266.281 104.095 266.391 104.063V104.932C266.268 104.991 266.085 105.039 265.844 105.075C265.607 105.116 265.393 105.137 265.201 105.137C263.752 105.137 263.027 104.373 263.027 102.847V98.3896H261.954V97.8428L263.027 97.3711L263.506 95.7715H264.162V97.5078H266.336V98.3896H264.162V102.799C264.162 103.25 264.269 103.596 264.483 103.838C264.698 104.079 264.992 104.2 265.365 104.2ZM20.3379 124H19.2031V113.363H20.3379V124ZM27.3516 124L27.126 122.934H27.0713C26.6976 123.403 26.3239 123.722 25.9502 123.891C25.5811 124.055 25.1185 124.137 24.5625 124.137C23.8197 124.137 23.2363 123.945 22.8125 123.562C22.3932 123.18 22.1836 122.635 22.1836 121.929C22.1836 120.416 23.3936 119.623 25.8135 119.55L27.085 119.509V119.044C27.085 118.456 26.9574 118.023 26.7021 117.745C26.4515 117.463 26.0482 117.321 25.4922 117.321C24.8678 117.321 24.1615 117.513 23.373 117.896L23.0244 117.027C23.3936 116.827 23.7969 116.67 24.2344 116.556C24.6764 116.442 25.1185 116.385 25.5605 116.385C26.4538 116.385 27.1146 116.583 27.543 116.979C27.9759 117.376 28.1924 118.012 28.1924 118.887V124H27.3516ZM24.7881 123.2C25.4945 123.2 26.0482 123.007 26.4492 122.619C26.8548 122.232 27.0576 121.689 27.0576 120.992V120.315L25.9229 120.363C25.0205 120.395 24.3688 120.536 23.9678 120.787C23.5713 121.033 23.373 121.418 23.373 121.942C23.373 122.353 23.4961 122.665 23.7422 122.879C23.9928 123.093 24.3415 123.2 24.7881 123.2ZM34.0234 116.385C35.0078 116.385 35.7712 116.722 36.3135 117.396C36.8604 118.066 37.1338 119.017 37.1338 120.247C37.1338 121.478 36.8581 122.435 36.3066 123.118C35.7598 123.797 34.9987 124.137 34.0234 124.137C33.5358 124.137 33.0892 124.048 32.6836 123.87C32.2826 123.688 31.9453 123.41 31.6719 123.036H31.5898L31.3506 124H30.5371V113.363H31.6719V115.947C31.6719 116.526 31.6536 117.046 31.6172 117.506H31.6719C32.2005 116.758 32.9844 116.385 34.0234 116.385ZM33.8594 117.335C33.0846 117.335 32.5264 117.558 32.1846 118.005C31.8428 118.447 31.6719 119.194 31.6719 120.247C31.6719 121.3 31.8473 122.054 32.1982 122.51C32.5492 122.961 33.112 123.187 33.8867 123.187C34.584 123.187 35.1035 122.934 35.4453 122.428C35.7871 121.917 35.958 121.186 35.958 120.233C35.958 119.258 35.7871 118.531 35.4453 118.053C35.1035 117.574 34.5749 117.335 33.8594 117.335ZM45.5898 120.247C45.5898 121.468 45.2822 122.423 44.667 123.111C44.0518 123.795 43.2018 124.137 42.1172 124.137C41.4473 124.137 40.8525 123.979 40.333 123.665C39.8135 123.351 39.4124 122.899 39.1299 122.312C38.8473 121.724 38.7061 121.035 38.7061 120.247C38.7061 119.026 39.0114 118.076 39.6221 117.396C40.2327 116.713 41.0804 116.371 42.165 116.371C43.2132 116.371 44.0449 116.72 44.6602 117.417C45.2799 118.114 45.5898 119.058 45.5898 120.247ZM39.8818 120.247C39.8818 121.204 40.0732 121.933 40.4561 122.435C40.8389 122.936 41.4017 123.187 42.1445 123.187C42.8874 123.187 43.4502 122.938 43.833 122.441C44.2204 121.94 44.4141 121.209 44.4141 120.247C44.4141 119.295 44.2204 118.572 43.833 118.08C43.4502 117.583 42.8828 117.335 42.1309 117.335C41.388 117.335 40.8275 117.579 40.4492 118.066C40.071 118.554 39.8818 119.281 39.8818 120.247ZM51.0039 116.371C51.3366 116.371 51.6351 116.398 51.8994 116.453L51.7422 117.506C51.4323 117.438 51.1589 117.403 50.9219 117.403C50.3158 117.403 49.7962 117.649 49.3633 118.142C48.9349 118.634 48.7207 119.247 48.7207 119.98V124H47.5859V116.508H48.5225L48.6523 117.896H48.707C48.985 117.408 49.32 117.032 49.7119 116.768C50.1038 116.503 50.5345 116.371 51.0039 116.371ZM54.4355 124H53.3008V116.508H54.4355V124ZM53.2051 114.478C53.2051 114.218 53.2689 114.029 53.3965 113.91C53.5241 113.787 53.6836 113.726 53.875 113.726C54.0573 113.726 54.2145 113.787 54.3467 113.91C54.4788 114.033 54.5449 114.222 54.5449 114.478C54.5449 114.733 54.4788 114.924 54.3467 115.052C54.2145 115.175 54.0573 115.236 53.875 115.236C53.6836 115.236 53.5241 115.175 53.3965 115.052C53.2689 114.924 53.2051 114.733 53.2051 114.478ZM63.3086 120.247C63.3086 121.468 63.001 122.423 62.3857 123.111C61.7705 123.795 60.9206 124.137 59.8359 124.137C59.166 124.137 58.5713 123.979 58.0518 123.665C57.5322 123.351 57.1312 122.899 56.8486 122.312C56.5661 121.724 56.4248 121.035 56.4248 120.247C56.4248 119.026 56.7301 118.076 57.3408 117.396C57.9515 116.713 58.7992 116.371 59.8838 116.371C60.932 116.371 61.7637 116.72 62.3789 117.417C62.9987 118.114 63.3086 119.058 63.3086 120.247ZM57.6006 120.247C57.6006 121.204 57.792 121.933 58.1748 122.435C58.5576 122.936 59.1204 123.187 59.8633 123.187C60.6061 123.187 61.1689 122.938 61.5518 122.441C61.9391 121.94 62.1328 121.209 62.1328 120.247C62.1328 119.295 61.9391 118.572 61.5518 118.08C61.1689 117.583 60.6016 117.335 59.8496 117.335C59.1068 117.335 58.5462 117.579 58.168 118.066C57.7897 118.554 57.6006 119.281 57.6006 120.247ZM70.1377 121.956C70.1377 122.653 69.8779 123.191 69.3584 123.569C68.8389 123.948 68.1097 124.137 67.1709 124.137C66.1774 124.137 65.4027 123.979 64.8467 123.665V122.612C65.2067 122.795 65.5918 122.938 66.002 123.043C66.4167 123.148 66.8154 123.2 67.1982 123.2C67.7907 123.2 68.2464 123.107 68.5654 122.92C68.8844 122.729 69.0439 122.439 69.0439 122.052C69.0439 121.76 68.9163 121.512 68.6611 121.307C68.4105 121.097 67.9183 120.851 67.1846 120.568C66.4873 120.309 65.9906 120.083 65.6943 119.892C65.4027 119.696 65.1839 119.475 65.0381 119.229C64.8968 118.982 64.8262 118.688 64.8262 118.347C64.8262 117.736 65.0745 117.255 65.5713 116.904C66.068 116.549 66.7493 116.371 67.6152 116.371C68.4219 116.371 69.2103 116.535 69.9805 116.863L69.5771 117.786C68.8252 117.476 68.1439 117.321 67.5332 117.321C66.9954 117.321 66.5898 117.406 66.3164 117.574C66.043 117.743 65.9062 117.975 65.9062 118.271C65.9062 118.472 65.9564 118.643 66.0566 118.784C66.1615 118.925 66.3278 119.06 66.5557 119.188C66.7835 119.315 67.221 119.5 67.8682 119.741C68.7568 120.065 69.3561 120.391 69.666 120.719C69.9805 121.047 70.1377 121.459 70.1377 121.956ZM76.5977 124L76.3721 122.934H76.3174C75.9437 123.403 75.57 123.722 75.1963 123.891C74.8271 124.055 74.3646 124.137 73.8086 124.137C73.0658 124.137 72.4824 123.945 72.0586 123.562C71.6393 123.18 71.4297 122.635 71.4297 121.929C71.4297 120.416 72.6396 119.623 75.0596 119.55L76.3311 119.509V119.044C76.3311 118.456 76.2035 118.023 75.9482 117.745C75.6976 117.463 75.2943 117.321 74.7383 117.321C74.1139 117.321 73.4076 117.513 72.6191 117.896L72.2705 117.027C72.6396 116.827 73.043 116.67 73.4805 116.556C73.9225 116.442 74.3646 116.385 74.8066 116.385C75.6999 116.385 76.3607 116.583 76.7891 116.979C77.222 117.376 77.4385 118.012 77.4385 118.887V124H76.5977ZM74.0342 123.2C74.7406 123.2 75.2943 123.007 75.6953 122.619C76.1009 122.232 76.3037 121.689 76.3037 120.992V120.315L75.1689 120.363C74.2666 120.395 73.6149 120.536 73.2139 120.787C72.8174 121.033 72.6191 121.418 72.6191 121.942C72.6191 122.353 72.7422 122.665 72.9883 122.879C73.2389 123.093 73.5876 123.2 74.0342 123.2ZM89.333 124V119.126C89.333 118.529 89.2054 118.082 88.9502 117.786C88.695 117.485 88.2985 117.335 87.7607 117.335C87.0544 117.335 86.5326 117.538 86.1953 117.943C85.8581 118.349 85.6895 118.973 85.6895 119.816V124H84.5547V119.126C84.5547 118.529 84.4271 118.082 84.1719 117.786C83.9167 117.485 83.5179 117.335 82.9756 117.335C82.2646 117.335 81.7428 117.549 81.4102 117.978C81.082 118.401 80.918 119.099 80.918 120.069V124H79.7832V116.508H80.7061L80.8906 117.533H80.9453C81.1595 117.169 81.4603 116.884 81.8477 116.679C82.2396 116.474 82.6771 116.371 83.1602 116.371C84.3314 116.371 85.097 116.795 85.457 117.643H85.5117C85.735 117.251 86.0586 116.941 86.4824 116.713C86.9062 116.485 87.3893 116.371 87.9316 116.371C88.7793 116.371 89.4128 116.59 89.832 117.027C90.2559 117.46 90.4678 118.155 90.4678 119.112V124H89.333ZM94.002 122.373L94.1045 122.53C93.986 122.986 93.8151 123.515 93.5918 124.116C93.3685 124.722 93.1361 125.285 92.8945 125.805H92.04C92.1631 125.331 92.2975 124.745 92.4434 124.048C92.5938 123.351 92.6986 122.792 92.7578 122.373H94.002ZM105.008 124V119.153C105.008 118.543 104.869 118.087 104.591 117.786C104.313 117.485 103.878 117.335 103.285 117.335C102.501 117.335 101.927 117.547 101.562 117.971C101.198 118.395 101.016 119.094 101.016 120.069V124H99.8809V116.508H100.804L100.988 117.533H101.043C101.275 117.164 101.601 116.879 102.021 116.679C102.44 116.474 102.907 116.371 103.422 116.371C104.324 116.371 105.003 116.59 105.459 117.027C105.915 117.46 106.143 118.155 106.143 119.112V124H105.008ZM109.615 124H108.48V116.508H109.615V124ZM108.385 114.478C108.385 114.218 108.449 114.029 108.576 113.91C108.704 113.787 108.863 113.726 109.055 113.726C109.237 113.726 109.394 113.787 109.526 113.91C109.659 114.033 109.725 114.222 109.725 114.478C109.725 114.733 109.659 114.924 109.526 115.052C109.394 115.175 109.237 115.236 109.055 115.236C108.863 115.236 108.704 115.175 108.576 115.052C108.449 114.924 108.385 114.733 108.385 114.478ZM116.854 121.956C116.854 122.653 116.595 123.191 116.075 123.569C115.556 123.948 114.826 124.137 113.888 124.137C112.894 124.137 112.119 123.979 111.563 123.665V122.612C111.924 122.795 112.309 122.938 112.719 123.043C113.133 123.148 113.532 123.2 113.915 123.2C114.507 123.2 114.963 123.107 115.282 122.92C115.601 122.729 115.761 122.439 115.761 122.052C115.761 121.76 115.633 121.512 115.378 121.307C115.127 121.097 114.635 120.851 113.901 120.568C113.204 120.309 112.707 120.083 112.411 119.892C112.119 119.696 111.901 119.475 111.755 119.229C111.614 118.982 111.543 118.688 111.543 118.347C111.543 117.736 111.791 117.255 112.288 116.904C112.785 116.549 113.466 116.371 114.332 116.371C115.139 116.371 115.927 116.535 116.697 116.863L116.294 117.786C115.542 117.476 114.861 117.321 114.25 117.321C113.712 117.321 113.307 117.406 113.033 117.574C112.76 117.743 112.623 117.975 112.623 118.271C112.623 118.472 112.673 118.643 112.773 118.784C112.878 118.925 113.045 119.06 113.272 119.188C113.5 119.315 113.938 119.5 114.585 119.741C115.474 120.065 116.073 120.391 116.383 120.719C116.697 121.047 116.854 121.459 116.854 121.956ZM119.842 124H118.707V116.508H119.842V124ZM118.611 114.478C118.611 114.218 118.675 114.029 118.803 113.91C118.93 113.787 119.09 113.726 119.281 113.726C119.464 113.726 119.621 113.787 119.753 113.91C119.885 114.033 119.951 114.222 119.951 114.478C119.951 114.733 119.885 114.924 119.753 115.052C119.621 115.175 119.464 115.236 119.281 115.236C119.09 115.236 118.93 115.175 118.803 115.052C118.675 114.924 118.611 114.733 118.611 114.478ZM126.951 116.508V121.368C126.951 121.979 127.09 122.435 127.368 122.735C127.646 123.036 128.081 123.187 128.674 123.187C129.458 123.187 130.03 122.972 130.39 122.544C130.754 122.116 130.937 121.416 130.937 120.445V116.508H132.071V124H131.135L130.971 122.995H130.909C130.677 123.364 130.353 123.647 129.938 123.843C129.528 124.039 129.059 124.137 128.53 124.137C127.619 124.137 126.935 123.92 126.479 123.487C126.028 123.054 125.803 122.362 125.803 121.409V116.508H126.951ZM136.904 123.2C137.105 123.2 137.299 123.187 137.485 123.159C137.672 123.127 137.82 123.095 137.93 123.063V123.932C137.807 123.991 137.624 124.039 137.383 124.075C137.146 124.116 136.932 124.137 136.74 124.137C135.291 124.137 134.566 123.373 134.566 121.847V117.39H133.493V116.843L134.566 116.371L135.045 114.771H135.701V116.508H137.875V117.39H135.701V121.799C135.701 122.25 135.808 122.596 136.022 122.838C136.237 123.079 136.531 123.2 136.904 123.2ZM147.678 124L147.452 122.934H147.397C147.024 123.403 146.65 123.722 146.276 123.891C145.907 124.055 145.445 124.137 144.889 124.137C144.146 124.137 143.562 123.945 143.139 123.562C142.719 123.18 142.51 122.635 142.51 121.929C142.51 120.416 143.72 119.623 146.14 119.55L147.411 119.509V119.044C147.411 118.456 147.284 118.023 147.028 117.745C146.778 117.463 146.374 117.321 145.818 117.321C145.194 117.321 144.488 117.513 143.699 117.896L143.351 117.027C143.72 116.827 144.123 116.67 144.561 116.556C145.003 116.442 145.445 116.385 145.887 116.385C146.78 116.385 147.441 116.583 147.869 116.979C148.302 117.376 148.519 118.012 148.519 118.887V124H147.678ZM145.114 123.2C145.821 123.2 146.374 123.007 146.775 122.619C147.181 122.232 147.384 121.689 147.384 120.992V120.315L146.249 120.363C145.347 120.395 144.695 120.536 144.294 120.787C143.897 121.033 143.699 121.418 143.699 121.942C143.699 122.353 143.822 122.665 144.068 122.879C144.319 123.093 144.668 123.2 145.114 123.2ZM151.998 124H150.863V113.363H151.998V124ZM155.539 124H154.404V116.508H155.539V124ZM154.309 114.478C154.309 114.218 154.372 114.029 154.5 113.91C154.628 113.787 154.787 113.726 154.979 113.726C155.161 113.726 155.318 113.787 155.45 113.91C155.582 114.033 155.648 114.222 155.648 114.478C155.648 114.733 155.582 114.924 155.45 115.052C155.318 115.175 155.161 115.236 154.979 115.236C154.787 115.236 154.628 115.175 154.5 115.052C154.372 114.924 154.309 114.733 154.309 114.478ZM160.775 123.187C161.532 123.187 162.083 122.984 162.43 122.578C162.776 122.173 162.961 121.489 162.983 120.527V120.274C162.983 119.226 162.806 118.472 162.45 118.012C162.095 117.551 161.532 117.321 160.762 117.321C160.096 117.321 159.586 117.581 159.23 118.101C158.88 118.616 158.704 119.345 158.704 120.288C158.704 121.231 158.877 121.951 159.224 122.448C159.575 122.94 160.092 123.187 160.775 123.187ZM160.604 124.137C159.638 124.137 158.884 123.797 158.342 123.118C157.799 122.439 157.528 121.491 157.528 120.274C157.528 119.049 157.802 118.091 158.349 117.403C158.896 116.715 159.657 116.371 160.632 116.371C161.657 116.371 162.446 116.758 162.997 117.533H163.059L163.223 116.508H164.118V127.363H162.983V124.157C162.983 123.701 163.008 123.314 163.059 122.995H162.97C162.446 123.756 161.657 124.137 160.604 124.137ZM167.598 116.508V121.368C167.598 121.979 167.737 122.435 168.015 122.735C168.293 123.036 168.728 123.187 169.32 123.187C170.104 123.187 170.676 122.972 171.036 122.544C171.401 122.116 171.583 121.416 171.583 120.445V116.508H172.718V124H171.781L171.617 122.995H171.556C171.323 123.364 171 123.647 170.585 123.843C170.175 124.039 169.705 124.137 169.177 124.137C168.265 124.137 167.582 123.92 167.126 123.487C166.675 123.054 166.449 122.362 166.449 121.409V116.508H167.598ZM176.266 124H175.131V116.508H176.266V124ZM175.035 114.478C175.035 114.218 175.099 114.029 175.227 113.91C175.354 113.787 175.514 113.726 175.705 113.726C175.887 113.726 176.045 113.787 176.177 113.91C176.309 114.033 176.375 114.222 176.375 114.478C176.375 114.733 176.309 114.924 176.177 115.052C176.045 115.175 175.887 115.236 175.705 115.236C175.514 115.236 175.354 115.175 175.227 115.052C175.099 114.924 175.035 114.733 175.035 114.478ZM183.771 122.995H183.71C183.186 123.756 182.402 124.137 181.358 124.137C180.379 124.137 179.615 123.802 179.068 123.132C178.526 122.462 178.255 121.509 178.255 120.274C178.255 119.039 178.528 118.08 179.075 117.396C179.622 116.713 180.383 116.371 181.358 116.371C182.375 116.371 183.154 116.74 183.696 117.479H183.785L183.737 116.938L183.71 116.412V113.363H184.845V124H183.922L183.771 122.995ZM181.502 123.187C182.277 123.187 182.837 122.977 183.184 122.558C183.535 122.134 183.71 121.452 183.71 120.514V120.274C183.71 119.213 183.532 118.456 183.177 118.005C182.826 117.549 182.263 117.321 181.488 117.321C180.823 117.321 180.312 117.581 179.957 118.101C179.606 118.616 179.431 119.345 179.431 120.288C179.431 121.245 179.606 121.967 179.957 122.455C180.308 122.943 180.823 123.187 181.502 123.187ZM194.06 124.137C192.952 124.137 192.077 123.799 191.435 123.125C190.797 122.451 190.478 121.514 190.478 120.315C190.478 119.108 190.774 118.148 191.366 117.438C191.963 116.727 192.763 116.371 193.766 116.371C194.704 116.371 195.447 116.681 195.994 117.301C196.541 117.916 196.814 118.729 196.814 119.741V120.459H191.653C191.676 121.339 191.897 122.006 192.316 122.462C192.74 122.918 193.335 123.146 194.101 123.146C194.907 123.146 195.705 122.977 196.493 122.64V123.651C196.092 123.825 195.712 123.948 195.352 124.021C194.996 124.098 194.565 124.137 194.06 124.137ZM193.752 117.321C193.15 117.321 192.67 117.517 192.31 117.909C191.954 118.301 191.744 118.843 191.681 119.536H195.598C195.598 118.821 195.438 118.274 195.119 117.896C194.8 117.513 194.344 117.321 193.752 117.321ZM200.561 120.165L197.956 116.508H199.248L201.224 119.379L203.192 116.508H204.471L201.866 120.165L204.607 124H203.322L201.224 120.965L199.104 124H197.819L200.561 120.165ZM212.899 124.137C211.792 124.137 210.917 123.799 210.274 123.125C209.636 122.451 209.317 121.514 209.317 120.315C209.317 119.108 209.614 118.148 210.206 117.438C210.803 116.727 211.603 116.371 212.605 116.371C213.544 116.371 214.287 116.681 214.834 117.301C215.381 117.916 215.654 118.729 215.654 119.741V120.459H210.493C210.516 121.339 210.737 122.006 211.156 122.462C211.58 122.918 212.175 123.146 212.94 123.146C213.747 123.146 214.545 122.977 215.333 122.64V123.651C214.932 123.825 214.551 123.948 214.191 124.021C213.836 124.098 213.405 124.137 212.899 124.137ZM212.592 117.321C211.99 117.321 211.509 117.517 211.149 117.909C210.794 118.301 210.584 118.843 210.521 119.536H214.438C214.438 118.821 214.278 118.274 213.959 117.896C213.64 117.513 213.184 117.321 212.592 117.321ZM222.203 124L221.978 122.934H221.923C221.549 123.403 221.175 123.722 220.802 123.891C220.433 124.055 219.97 124.137 219.414 124.137C218.671 124.137 218.088 123.945 217.664 123.562C217.245 123.18 217.035 122.635 217.035 121.929C217.035 120.416 218.245 119.623 220.665 119.55L221.937 119.509V119.044C221.937 118.456 221.809 118.023 221.554 117.745C221.303 117.463 220.9 117.321 220.344 117.321C219.719 117.321 219.013 117.513 218.225 117.896L217.876 117.027C218.245 116.827 218.648 116.67 219.086 116.556C219.528 116.442 219.97 116.385 220.412 116.385C221.305 116.385 221.966 116.583 222.395 116.979C222.827 117.376 223.044 118.012 223.044 118.887V124H222.203ZM219.64 123.2C220.346 123.2 220.9 123.007 221.301 122.619C221.706 122.232 221.909 121.689 221.909 120.992V120.315L220.774 120.363C219.872 120.395 219.22 120.536 218.819 120.787C218.423 121.033 218.225 121.418 218.225 121.942C218.225 122.353 218.348 122.665 218.594 122.879C218.844 123.093 219.193 123.2 219.64 123.2ZM232.02 124.137C230.935 124.137 230.094 123.804 229.497 123.139C228.905 122.469 228.608 121.523 228.608 120.302C228.608 119.049 228.909 118.08 229.511 117.396C230.117 116.713 230.978 116.371 232.095 116.371C232.455 116.371 232.815 116.41 233.175 116.487C233.535 116.565 233.817 116.656 234.022 116.761L233.674 117.725C233.423 117.624 233.15 117.542 232.854 117.479C232.557 117.41 232.295 117.376 232.067 117.376C230.545 117.376 229.784 118.347 229.784 120.288C229.784 121.209 229.969 121.915 230.338 122.407C230.712 122.899 231.263 123.146 231.992 123.146C232.617 123.146 233.257 123.011 233.913 122.742V123.747C233.412 124.007 232.781 124.137 232.02 124.137ZM242.164 120.247C242.164 121.468 241.856 122.423 241.241 123.111C240.626 123.795 239.776 124.137 238.691 124.137C238.021 124.137 237.427 123.979 236.907 123.665C236.388 123.351 235.987 122.899 235.704 122.312C235.422 121.724 235.28 121.035 235.28 120.247C235.28 119.026 235.586 118.076 236.196 117.396C236.807 116.713 237.655 116.371 238.739 116.371C239.787 116.371 240.619 116.72 241.234 117.417C241.854 118.114 242.164 119.058 242.164 120.247ZM236.456 120.247C236.456 121.204 236.647 121.933 237.03 122.435C237.413 122.936 237.976 123.187 238.719 123.187C239.462 123.187 240.024 122.938 240.407 122.441C240.795 121.94 240.988 121.209 240.988 120.247C240.988 119.295 240.795 118.572 240.407 118.08C240.024 117.583 239.457 117.335 238.705 117.335C237.962 117.335 237.402 117.579 237.023 118.066C236.645 118.554 236.456 119.281 236.456 120.247ZM253.71 124V119.126C253.71 118.529 253.582 118.082 253.327 117.786C253.072 117.485 252.675 117.335 252.138 117.335C251.431 117.335 250.91 117.538 250.572 117.943C250.235 118.349 250.066 118.973 250.066 119.816V124H248.932V119.126C248.932 118.529 248.804 118.082 248.549 117.786C248.294 117.485 247.895 117.335 247.353 117.335C246.642 117.335 246.12 117.549 245.787 117.978C245.459 118.401 245.295 119.099 245.295 120.069V124H244.16V116.508H245.083L245.268 117.533H245.322C245.536 117.169 245.837 116.884 246.225 116.679C246.617 116.474 247.054 116.371 247.537 116.371C248.708 116.371 249.474 116.795 249.834 117.643H249.889C250.112 117.251 250.436 116.941 250.859 116.713C251.283 116.485 251.766 116.371 252.309 116.371C253.156 116.371 253.79 116.59 254.209 117.027C254.633 117.46 254.845 118.155 254.845 119.112V124H253.71ZM266.739 124V119.126C266.739 118.529 266.612 118.082 266.356 117.786C266.101 117.485 265.705 117.335 265.167 117.335C264.461 117.335 263.939 117.538 263.602 117.943C263.264 118.349 263.096 118.973 263.096 119.816V124H261.961V119.126C261.961 118.529 261.833 118.082 261.578 117.786C261.323 117.485 260.924 117.335 260.382 117.335C259.671 117.335 259.149 117.549 258.816 117.978C258.488 118.401 258.324 119.099 258.324 120.069V124H257.189V116.508H258.112L258.297 117.533H258.352C258.566 117.169 258.867 116.884 259.254 116.679C259.646 116.474 260.083 116.371 260.566 116.371C261.738 116.371 262.503 116.795 262.863 117.643H262.918C263.141 117.251 263.465 116.941 263.889 116.713C264.312 116.485 264.796 116.371 265.338 116.371C266.186 116.371 266.819 116.59 267.238 117.027C267.662 117.46 267.874 118.155 267.874 119.112V124H266.739ZM276.686 120.247C276.686 121.468 276.378 122.423 275.763 123.111C275.147 123.795 274.298 124.137 273.213 124.137C272.543 124.137 271.948 123.979 271.429 123.665C270.909 123.351 270.508 122.899 270.226 122.312C269.943 121.724 269.802 121.035 269.802 120.247C269.802 119.026 270.107 118.076 270.718 117.396C271.328 116.713 272.176 116.371 273.261 116.371C274.309 116.371 275.141 116.72 275.756 117.417C276.376 118.114 276.686 119.058 276.686 120.247ZM270.978 120.247C270.978 121.204 271.169 121.933 271.552 122.435C271.935 122.936 272.497 123.187 273.24 123.187C273.983 123.187 274.546 122.938 274.929 122.441C275.316 121.94 275.51 121.209 275.51 120.247C275.51 119.295 275.316 118.572 274.929 118.08C274.546 117.583 273.979 117.335 273.227 117.335C272.484 117.335 271.923 117.579 271.545 118.066C271.167 118.554 270.978 119.281 270.978 120.247ZM283.781 122.995H283.72C283.196 123.756 282.412 124.137 281.368 124.137C280.388 124.137 279.625 123.802 279.078 123.132C278.536 122.462 278.265 121.509 278.265 120.274C278.265 119.039 278.538 118.08 279.085 117.396C279.632 116.713 280.393 116.371 281.368 116.371C282.384 116.371 283.164 116.74 283.706 117.479H283.795L283.747 116.938L283.72 116.412V113.363H284.854V124H283.932L283.781 122.995ZM281.512 123.187C282.286 123.187 282.847 122.977 283.193 122.558C283.544 122.134 283.72 121.452 283.72 120.514V120.274C283.72 119.213 283.542 118.456 283.187 118.005C282.836 117.549 282.273 117.321 281.498 117.321C280.833 117.321 280.322 117.581 279.967 118.101C279.616 118.616 279.44 119.345 279.44 120.288C279.44 121.245 279.616 121.967 279.967 122.455C280.318 122.943 280.833 123.187 281.512 123.187ZM288.402 124H287.268V116.508H288.402V124ZM287.172 114.478C287.172 114.218 287.236 114.029 287.363 113.91C287.491 113.787 287.65 113.726 287.842 113.726C288.024 113.726 288.181 113.787 288.313 113.91C288.446 114.033 288.512 114.222 288.512 114.478C288.512 114.733 288.446 114.924 288.313 115.052C288.181 115.175 288.024 115.236 287.842 115.236C287.65 115.236 287.491 115.175 287.363 115.052C287.236 114.924 287.172 114.733 287.172 114.478Z" fill="#ADAEAF"/>
<path d="M23.3457 53.5723H27.0781V58.5898C26.554 58.763 26.0117 58.8975 25.4512 58.9932C24.8906 59.0889 24.2617 59.1367 23.5645 59.1367C22.5482 59.1367 21.6868 58.9362 20.9805 58.5352C20.2786 58.1296 19.7454 57.5439 19.3809 56.7783C19.0163 56.0081 18.834 55.0807 18.834 53.9961C18.834 52.9525 19.0368 52.0479 19.4424 51.2822C19.848 50.512 20.4382 49.9173 21.2129 49.498C21.9876 49.0742 22.9264 48.8623 24.0293 48.8623C24.5716 48.8623 25.0957 48.917 25.6016 49.0264C26.112 49.1312 26.5791 49.277 27.0029 49.4639L26.4287 50.8174C26.0915 50.6579 25.7132 50.5234 25.2939 50.4141C24.8747 50.3047 24.4395 50.25 23.9883 50.25C23.2728 50.25 22.6553 50.4049 22.1357 50.7148C21.6208 51.0247 21.2243 51.4622 20.9463 52.0273C20.6683 52.5879 20.5293 53.251 20.5293 54.0166C20.5293 54.7594 20.641 55.4111 20.8643 55.9717C21.0876 56.5322 21.4362 56.9697 21.9102 57.2842C22.3887 57.5941 23.0062 57.749 23.7627 57.749C24.141 57.749 24.4622 57.7285 24.7266 57.6875C24.9909 57.6465 25.2347 57.6009 25.458 57.5508V54.9736H23.3457V53.5723ZM35.9033 51.4326V59H34.6387L34.4199 57.9814H34.3311C34.1715 58.2412 33.9688 58.4577 33.7227 58.6309C33.4766 58.7995 33.2031 58.9248 32.9023 59.0068C32.6016 59.0934 32.2848 59.1367 31.9521 59.1367C31.3825 59.1367 30.8949 59.041 30.4893 58.8496C30.0882 58.6536 29.7806 58.3529 29.5664 57.9473C29.3522 57.5417 29.2451 57.0176 29.2451 56.375V51.4326H30.8584V56.0742C30.8584 56.6621 30.9769 57.1019 31.2139 57.3936C31.4554 57.6852 31.8291 57.8311 32.335 57.8311C32.8226 57.8311 33.21 57.7308 33.4971 57.5303C33.7842 57.3298 33.987 57.0335 34.1055 56.6416C34.2285 56.2497 34.29 55.7689 34.29 55.1992V51.4326H35.9033ZM37.0654 51.4326H38.8154L40.3672 55.7529C40.4355 55.9489 40.4971 56.1426 40.5518 56.334C40.611 56.5208 40.6611 56.7054 40.7021 56.8877C40.7477 57.07 40.7842 57.2523 40.8115 57.4346H40.8525C40.8981 57.1976 40.9619 56.9333 41.0439 56.6416C41.1305 56.3454 41.2262 56.0492 41.3311 55.7529L42.8213 51.4326H44.5508L41.3037 60.0391C41.1169 60.5312 40.8867 60.9505 40.6133 61.2969C40.3444 61.6478 40.0254 61.9121 39.6562 62.0898C39.2871 62.2721 38.8656 62.3633 38.3916 62.3633C38.1637 62.3633 37.9655 62.3496 37.7969 62.3223C37.6283 62.2995 37.4847 62.2744 37.3662 62.2471V60.9619C37.4619 60.9847 37.5827 61.0052 37.7285 61.0234C37.8743 61.0417 38.0247 61.0508 38.1797 61.0508C38.4668 61.0508 38.7152 60.9938 38.9248 60.8799C39.1344 60.766 39.3122 60.6042 39.458 60.3945C39.6038 60.1895 39.7246 59.9548 39.8203 59.6904L40.0869 58.9795L37.0654 51.4326ZM57.3818 59H55.748V54.4883H51.1406V59H49.5V49.0059H51.1406V53.0938H55.748V49.0059H57.3818V59ZM62.8301 51.2891C63.7871 51.2891 64.5094 51.501 64.9971 51.9248C65.4893 52.3486 65.7354 53.0094 65.7354 53.9072V59H64.5938L64.2861 57.9268H64.2314C64.0173 58.2002 63.7962 58.4258 63.5684 58.6035C63.3405 58.7812 63.0762 58.9134 62.7754 59C62.4792 59.0911 62.1169 59.1367 61.6885 59.1367C61.2373 59.1367 60.834 59.0547 60.4785 58.8906C60.123 58.722 59.8428 58.4668 59.6377 58.125C59.4326 57.7832 59.3301 57.3503 59.3301 56.8262C59.3301 56.0469 59.6195 55.4613 60.1982 55.0693C60.7816 54.6774 61.6611 54.4609 62.8369 54.4199L64.1494 54.3721V53.9756C64.1494 53.4515 64.0264 53.0778 63.7803 52.8545C63.5387 52.6312 63.1969 52.5195 62.7549 52.5195C62.3766 52.5195 62.0098 52.5742 61.6543 52.6836C61.2988 52.793 60.9525 52.9274 60.6152 53.0869L60.0957 51.9521C60.4648 51.7562 60.8841 51.5967 61.3535 51.4736C61.8275 51.3506 62.3197 51.2891 62.8301 51.2891ZM64.1426 55.3838L63.165 55.418C62.363 55.4453 61.8001 55.582 61.4766 55.8281C61.153 56.0742 60.9912 56.4115 60.9912 56.8398C60.9912 57.2135 61.1029 57.487 61.3262 57.6602C61.5495 57.8288 61.8434 57.9131 62.208 57.9131C62.764 57.9131 63.2243 57.7559 63.5889 57.4414C63.958 57.1224 64.1426 56.6553 64.1426 56.04V55.3838ZM74.1709 58.9932L73.2139 55.4727C73.1683 55.2995 73.1136 55.0898 73.0498 54.8438C72.986 54.5977 72.9222 54.3447 72.8584 54.085C72.7946 53.8206 72.7354 53.5768 72.6807 53.3535C72.6305 53.1302 72.5918 52.957 72.5645 52.834H72.5098C72.487 52.957 72.4505 53.1302 72.4004 53.3535C72.3503 53.5768 72.2933 53.8206 72.2295 54.085C72.1657 54.3493 72.1019 54.6068 72.0381 54.8574C71.9788 55.1081 71.9242 55.3223 71.874 55.5L70.8691 58.9932H69.1055L66.9863 51.4258H68.6133L69.5977 55.1855C69.6615 55.4408 69.723 55.7165 69.7822 56.0127C69.846 56.3089 69.9007 56.5915 69.9463 56.8604C69.9919 57.1292 70.026 57.3503 70.0488 57.5234H70.1035C70.1217 57.4004 70.1468 57.2454 70.1787 57.0586C70.2106 56.8672 70.2471 56.6689 70.2881 56.4639C70.3291 56.2542 70.3701 56.0583 70.4111 55.876C70.4521 55.6891 70.4909 55.5387 70.5273 55.4248L71.6895 51.4258H73.4463L74.5605 55.4248C74.6107 55.598 74.6654 55.8167 74.7246 56.0811C74.7839 56.3408 74.8363 56.6029 74.8818 56.8672C74.932 57.127 74.9639 57.3434 74.9775 57.5166H75.0322C75.0505 57.3617 75.0824 57.152 75.1279 56.8877C75.1781 56.6188 75.235 56.334 75.2988 56.0332C75.3626 55.7279 75.4287 55.4453 75.4971 55.1855L76.502 51.4258H78.1016L75.9688 58.9932H74.1709ZM81.0068 48.3633V53.5039C81.0068 53.7363 80.9977 53.9915 80.9795 54.2695C80.9613 54.543 80.943 54.8005 80.9248 55.042H80.959C81.0775 54.8825 81.2188 54.6956 81.3828 54.4814C81.5514 54.2673 81.7109 54.0804 81.8613 53.9209L84.1719 51.4326H86.0176L82.9893 54.6865L86.2158 59H84.3291L81.9092 55.6777L81.0068 56.4502V59H79.4004V48.3633H81.0068ZM89.0322 51.4326V59H87.4258V51.4326H89.0322ZM88.2393 48.5342C88.4854 48.5342 88.6973 48.6003 88.875 48.7324C89.0573 48.8646 89.1484 49.0924 89.1484 49.416C89.1484 49.735 89.0573 49.9629 88.875 50.0996C88.6973 50.2318 88.4854 50.2979 88.2393 50.2979C87.984 50.2979 87.7676 50.2318 87.5898 50.0996C87.4167 49.9629 87.3301 49.735 87.3301 49.416C87.3301 49.0924 87.4167 48.8646 87.5898 48.7324C87.7676 48.6003 87.984 48.5342 88.2393 48.5342ZM95.2803 51.2891C96.1325 51.2891 96.7956 51.5101 97.2695 51.9521C97.748 52.3896 97.9873 53.0938 97.9873 54.0645V59H96.3809V54.3652C96.3809 53.7773 96.2601 53.3376 96.0186 53.0459C95.777 52.7497 95.4033 52.6016 94.8975 52.6016C94.1637 52.6016 93.6533 52.8271 93.3662 53.2783C93.0837 53.7295 92.9424 54.3835 92.9424 55.2402V59H91.3359V51.4326H92.5869L92.8125 52.458H92.9014C93.0654 52.1937 93.2682 51.9772 93.5098 51.8086C93.7559 51.6354 94.0293 51.5055 94.3301 51.4189C94.6354 51.3324 94.9521 51.2891 95.2803 51.2891ZM105.322 56.8398C105.322 57.3366 105.201 57.7559 104.96 58.0977C104.718 58.4395 104.365 58.6992 103.9 58.877C103.44 59.0501 102.875 59.1367 102.205 59.1367C101.676 59.1367 101.221 59.098 100.838 59.0205C100.46 58.9476 100.102 58.8337 99.7646 58.6787V57.291C100.125 57.4596 100.528 57.6055 100.975 57.7285C101.426 57.8516 101.852 57.9131 102.253 57.9131C102.782 57.9131 103.162 57.8311 103.395 57.667C103.627 57.4984 103.743 57.2751 103.743 56.9971C103.743 56.833 103.695 56.6872 103.6 56.5596C103.508 56.4274 103.335 56.293 103.08 56.1562C102.829 56.015 102.46 55.8464 101.973 55.6504C101.494 55.459 101.091 55.2676 100.763 55.0762C100.435 54.8848 100.186 54.6546 100.018 54.3857C99.849 54.1123 99.7646 53.7637 99.7646 53.3398C99.7646 52.6699 100.029 52.1618 100.558 51.8154C101.091 51.4645 101.795 51.2891 102.67 51.2891C103.135 51.2891 103.572 51.3369 103.982 51.4326C104.397 51.5238 104.803 51.6582 105.199 51.8359L104.693 53.0459C104.352 52.8955 104.007 52.7725 103.661 52.6768C103.319 52.5765 102.971 52.5264 102.615 52.5264C102.201 52.5264 101.884 52.5902 101.665 52.7178C101.451 52.8454 101.344 53.0277 101.344 53.2646C101.344 53.4424 101.396 53.5928 101.501 53.7158C101.606 53.8389 101.786 53.9619 102.041 54.085C102.301 54.208 102.661 54.3607 103.121 54.543C103.572 54.7161 103.962 54.8984 104.29 55.0898C104.623 55.2767 104.878 55.5068 105.056 55.7803C105.233 56.0537 105.322 56.4069 105.322 56.8398Z" fill="#111112"/>
<line x1="140" y1="54" x2="116" y2="54" stroke="#111112"/>
</svg>
