<svg width="74" height="27" viewBox="0 0 74 27" fill="none" xmlns="http://www.w3.org/2000/svg">
<path d="M20.0189 7.88109L19.283 7.14515C19.075 6.93716 18.691 6.96917 18.451 7.25711L15.8908 9.80108C14.7388 9.30514 13.4749 9.06514 12.1468 9.06514C8.1947 9.08107 4.77092 11.385 3.1228 14.6973C3.02677 14.9052 3.02677 15.1612 3.1228 15.3372C3.89073 16.9052 5.04281 18.2012 6.48281 19.1772L4.38682 21.3051C4.14682 21.5451 4.11481 21.9291 4.27485 22.1371L5.0108 22.8731C5.21879 23.081 5.60277 23.049 5.84277 22.7611L19.8907 8.71321C20.1947 8.47334 20.2267 8.08938 20.0187 7.88137L20.0189 7.88109ZM12.9948 12.713C12.7228 12.649 12.4349 12.569 12.1628 12.569C10.8028 12.569 9.71489 13.657 9.71489 15.0169C9.71489 15.2889 9.77891 15.5769 9.85887 15.8489L8.78675 16.9049C8.4668 16.345 8.29081 15.7209 8.29081 15.017C8.29081 12.889 10.0028 11.177 12.1308 11.177C12.8349 11.177 13.4588 11.353 14.0188 11.6729L12.9948 12.713Z" fill="#666666" fill-opacity="0.8"/>
<path d="M21.1714 14.6974C20.6114 13.5774 19.8753 12.5695 18.9634 11.7534L15.9874 14.6974V15.0174C15.9874 17.1454 14.2754 18.8574 12.1474 18.8574H11.8274L9.93945 20.7454C10.6435 20.8893 11.3795 20.9854 12.0995 20.9854C16.0516 20.9854 19.4754 18.6814 21.1235 15.3532C21.2675 15.1292 21.2675 14.9053 21.1714 14.6973L21.1714 14.6974Z" fill="#666666" fill-opacity="0.8"/>
<path d="M43.97 7.454V20H42.332V14.312H35.942V20H34.304V7.454H35.942V12.962H42.332V7.454H43.97ZM47.6129 8.534C47.3009 8.534 47.0369 8.426 46.8209 8.21C46.6049 7.994 46.4969 7.73 46.4969 7.418C46.4969 7.106 46.6049 6.842 46.8209 6.626C47.0369 6.41 47.3009 6.302 47.6129 6.302C47.9129 6.302 48.1649 6.41 48.3689 6.626C48.5849 6.842 48.6929 7.106 48.6929 7.418C48.6929 7.73 48.5849 7.994 48.3689 8.21C48.1649 8.426 47.9129 8.534 47.6129 8.534ZM48.4049 10.136V20H46.7669V10.136H48.4049ZM50.5845 15.032C50.5845 14.024 50.7885 13.142 51.1965 12.386C51.6045 11.618 52.1625 11.024 52.8705 10.604C53.5905 10.184 54.3945 9.974 55.2825 9.974C56.0505 9.974 56.7645 10.154 57.4245 10.514C58.0845 10.862 58.5885 11.324 58.9365 11.9V6.68H60.5925V20H58.9365V18.146C58.6125 18.734 58.1325 19.22 57.4965 19.604C56.8605 19.976 56.1165 20.162 55.2645 20.162C54.3885 20.162 53.5905 19.946 52.8705 19.514C52.1625 19.082 51.6045 18.476 51.1965 17.696C50.7885 16.916 50.5845 16.028 50.5845 15.032ZM58.9365 15.05C58.9365 14.306 58.7865 13.658 58.4865 13.106C58.1865 12.554 57.7785 12.134 57.2625 11.846C56.7585 11.546 56.2005 11.396 55.5885 11.396C54.9765 11.396 54.4185 11.54 53.9145 11.828C53.4105 12.116 53.0085 12.536 52.7085 13.088C52.4085 13.64 52.2585 14.288 52.2585 15.032C52.2585 15.788 52.4085 16.448 52.7085 17.012C53.0085 17.564 53.4105 17.99 53.9145 18.29C54.4185 18.578 54.9765 18.722 55.5885 18.722C56.2005 18.722 56.7585 18.578 57.2625 18.29C57.7785 17.99 58.1865 17.564 58.4865 17.012C58.7865 16.448 58.9365 15.794 58.9365 15.05ZM72.3606 14.69C72.3606 15.002 72.3426 15.332 72.3066 15.68H64.4226C64.4826 16.652 64.8126 17.414 65.4126 17.966C66.0246 18.506 66.7626 18.776 67.6266 18.776C68.3346 18.776 68.9226 18.614 69.3906 18.29C69.8706 17.954 70.2066 17.51 70.3986 16.958H72.1626C71.8986 17.906 71.3706 18.68 70.5786 19.28C69.7866 19.868 68.8026 20.162 67.6266 20.162C66.6906 20.162 65.8506 19.952 65.1066 19.532C64.3746 19.112 63.7986 18.518 63.3786 17.75C62.9586 16.97 62.7486 16.07 62.7486 15.05C62.7486 14.03 62.9526 13.136 63.3606 12.368C63.7686 11.6 64.3386 11.012 65.0706 10.604C65.8146 10.184 66.6666 9.974 67.6266 9.974C68.5626 9.974 69.3906 10.178 70.1106 10.586C70.8306 10.994 71.3826 11.558 71.7666 12.278C72.1626 12.986 72.3606 13.79 72.3606 14.69ZM70.6686 14.348C70.6686 13.724 70.5306 13.19 70.2546 12.746C69.9786 12.29 69.6006 11.948 69.1206 11.72C68.6526 11.48 68.1306 11.36 67.5546 11.36C66.7266 11.36 66.0186 11.624 65.4306 12.152C64.8546 12.68 64.5246 13.412 64.4406 14.348H70.6686Z" fill="#666666" fill-opacity="0.8"/>
</svg>
